<?xml version="1.0" encoding="UTF-8"?>
<svg width="14px" height="18px" viewBox="0 0 14 18" version="1.1" xmlns="http://www.w3.org/2000/svg" xmlns:xlink="http://www.w3.org/1999/xlink">
    <!-- Generator: Sketch 43.1 (39012) - http://www.bohemiancoding.com/sketch -->
    <title>lock_psw</title>
    <desc>Created with Sketch.</desc>
    <defs></defs>
    <g id="Symbols" stroke="none" stroke-width="1" fill="none" fill-rule="evenodd">
        <g id="lock_psw" fill-rule="nonzero" fill="#D7DDEA">
            <g id="1492266012_lock" transform="translate(1.000000, 0.000000)">
                <path d="M12.1897838,7.26660856 L11.1048223,7.26660856 L11.1048223,4.68228209 C11.1048223,2.10183722 9.00812995,0.0024654743 6.42856124,0.0024654743 C3.84898234,0.0024654743 1.75232058,2.10321259 1.75232058,4.68533847 L1.75232058,7.26660856 L0.679390989,7.26660856 C0.307623953,7.26660856 0,7.56188476 0,7.93364161 L0,15.7418599 C0,16.6697645 0.761159158,17.423945 1.68907403,17.423945 L11.1801007,17.423945 C12.1080156,17.423945 12.8571429,16.6697645 12.8571429,15.7418599 L12.8571429,7.93364161 C12.8571429,7.56188476 12.5615406,7.26660856 12.1897838,7.26660856 Z M3.09712475,4.68533847 C3.09712475,2.84552411 4.59132443,1.34871632 6.42856124,1.34871632 C8.26580824,1.34871632 9.76001811,2.84413856 9.76001811,4.68228209 L9.76001811,7.26660856 L3.09712475,7.26660856 L3.09712475,4.68533847 Z M11.5123387,15.7418599 C11.5123387,15.9274632 11.3656837,16.0791408 11.1801007,16.0791408 L1.68907403,16.0791408 C1.50349106,16.0791408 1.34480417,15.927453 1.34480417,15.7418599 L1.34480417,8.61141272 L11.5123387,8.61141272 L11.5123387,15.7418599 Z" id="Shape"></path>
                <path d="M6.42857143,14.3619685 C6.80033847,14.3619685 7.10097351,14.0606101 7.10097351,13.6888431 L7.10097351,11.2656079 C7.10097351,10.893851 6.80032828,10.5924926 6.42857143,10.5924926 C6.05681458,10.5924926 5.75616935,10.893851 5.75616935,11.2656079 L5.75616935,13.6888431 C5.75616935,14.0606101 6.05680439,14.3619685 6.42857143,14.3619685 Z" id="Shape"></path>
            </g>
        </g>
    </g>
</svg>